<?xml version="1.0" encoding="utf-8"?><svg viewBox="0 0 50 50" xmlns="http://www.w3.org/2000/svg" xmlns:xlink="http://www.w3.org/1999/xlink"><style>:root>svg{display:none}:root>svg:target{display:block}</style><svg viewBox="0 0 12 12" id="arrow-double" xmlns="http://www.w3.org/2000/svg"><path d="M0 0h3l3 6-3 6H0l3-6-3-6zM6 0h3l3 6-3 6H6l3-6-3-6z"/></svg><svg fill="none" viewBox="0 0 17 17" id="calendar" xmlns="http://www.w3.org/2000/svg"><path d="M11.9 1.7H5.1M1.02 4.76h14.96M3.74 1.7H1.36c-.204 0-.34.136-.34.34v13.6c0 .204.136.34.34.34h14.28c.204 0 .34-.136.34-.34V2.04c0-.204-.136-.34-.34-.34H3.74z" stroke="#494949" stroke-opacity=".63" stroke-miterlimit="10" stroke-linejoin="round"/><path d="M3.74 6.8h9.52v7.14H3.74V6.8z" stroke="#494949" stroke-opacity=".63" stroke-width=".5" stroke-miterlimit="10"/><path d="M3.74 9.18h9.52-9.52zm0 2.38h9.52-9.52zM8.5 6.8v7.14V6.8zm-2.38 0v7.14V6.8zm4.76 0v7.14V6.8zm2.04-3.74h-.68a.34.34 0 01-.34-.34V.68a.34.34 0 01.34-.34h.68a.34.34 0 01.34.34v2.04a.34.34 0 01-.34.34zm-8.16 0h-.68a.34.34 0 01-.34-.34V.68a.34.34 0 01.34-.34h.68a.34.34 0 01.34.34v2.04a.34.34 0 01-.34.34z" stroke="#494949" stroke-opacity=".63" stroke-width=".5" stroke-miterlimit="10" stroke-linejoin="round"/></svg><svg fill="none" viewBox="0 0 45 45" id="money" xmlns="http://www.w3.org/2000/svg"><path d="M27.36 15.75c-1.17-4.41 1.53-8.01 1.89-8.46.63-.99 1.8-2.79 0-2.79s-3.87 1.35-5.22 0c-2.25-2.34-3.42-2.34-4.95-.18-.9 1.26-2.34 1.26-4.14 1.26-3.78 0-2.97 1.53-1.8 2.61.54.54 3.87 3.33 3.42 7.92C10.62 17.46 4.5 25.02 4.5 31.59c0 8.46 4.77 10.71 18 10.71s18-2.25 18-10.71c0-7.11-6.48-13.95-13.14-15.84z" stroke="#E5173E" stroke-width="2" stroke-miterlimit="10" stroke-linecap="round"/><path d="M12.24 6.39c2.07 3.6 4.68 4.32 6.12 2.97 1.62-1.53 2.52-2.25 4.23-.09.9 1.08 2.43.72 3.51-.27 1.98-1.8 3.69-2.52 3.51-3.69M16.47 15.93s4.86 2.97 10.89-.36c1.89-1.08 5.4-4.59 9.99-2.07M27.36 15.57c1.53-.63 5.94-1.8 9.09 1.53" stroke="#E5173E" stroke-width="2" stroke-miterlimit="10" stroke-linecap="round"/><path d="M16.2 29.7h8.1a3.6 3.6 0 000-7.2h-5.4v14.4M16.2 33.3h7.2" stroke="#E5173E" stroke-width="2" stroke-miterlimit="10" stroke-linecap="round" stroke-linejoin="round"/></svg><svg fill="none" viewBox="0 0 38 39" id="parking" xmlns="http://www.w3.org/2000/svg"><path d="M2.56 5.557h9.36c.468 0 .78.314.78.783v4.854c0 .391-.156.783-.468 1.096l-2.418 2.427a.707.707 0 01-.546.235H5.212a.707.707 0 01-.546-.235L2.248 12.29a1.548 1.548 0 01-.468-1.096V6.34c0-.47.312-.783.78-.783z" stroke="#E5173E" stroke-width="2" stroke-miterlimit="10"/><path d="M7.24 14.952V36.09c0 .86.702 1.566 1.56 1.566h26.52c.858 0 1.56-.705 1.56-1.566V7.123c0-.861-.702-1.566-1.56-1.566H15.04" stroke="#E5173E" stroke-width="2" stroke-miterlimit="10"/><path d="M24.166 13.386c5.304 0 5.538 4.54 5.538 5.402 0 .861-.234 5.402-5.538 5.402h-6.552v7.985H15.82V13.386h8.346zm-.39 9.238c2.964 0 4.134-1.8 4.134-3.836 0-2.114-1.248-3.836-4.134-3.836h-6.162v7.672h6.162z" fill="#E5173E"/><path d="M4.12.86v4.696M10.36.86v4.696V.86z" stroke="#E5173E" stroke-width="2" stroke-miterlimit="10"/></svg><svg viewBox="0 0 17 16" id="phone" xmlns="http://www.w3.org/2000/svg"><path d="M3.554 10.53L1.47 11.8c-.107.06-.133.167-.087.249l.897 1.535c.5.855 1.588 1.39 2.485.999 5.305-2.312 7.933-4.852 10.128-9.917.383-.885-.147-1.943-1.021-2.433l-1.567-.878c-.054-.03-.187-.062-.24.065L10.744 3.5c-.033.06-.01.164.07.213l.46.287c.627.392.88 1.162.604 1.829-.61 1.472-2.415 3.33-2.491 3.409-.1.094-1.948 1.812-3.438 2.396-.68.268-1.461.017-1.861-.594l-.294-.454c-.036-.052-.143-.114-.24-.055zm.63 5.47c-1.237 0-2.44-.653-3.084-1.754l-.897-1.534a1.493 1.493 0 01.57-2.057l2.084-1.27c.734-.412 1.641-.196 2.084.486l.294.454c.047.069.133.101.203.072 1.244-.487 2.965-2.087 2.982-2.1 0 0 1.68-1.734 2.19-2.968.03-.072-.003-.157-.073-.202l-.46-.288a1.487 1.487 0 01-.507-2.021L10.89.735c.194-.327 1.008-1.094 2.092-.54l1.567.88c1.417.796 2.11 2.468 1.647 3.973-.763 2.485-2.2 4.712-4.272 6.626-1.954 2.024-4.228 3.431-6.766 4.182-.32.098-.647.144-.974.144zM1.213 6.801a.672.672 0 01-.68-.666C.533 3.04 3.103.52 6.265.52c.377 0 .68.297.68.666a.672.672 0 01-.68.666c-2.41 0-4.372 1.92-4.372 4.281 0 .372-.303.67-.68.67z"/><path d="M4.144 6.802a.672.672 0 01-.68-.667c0-1.511 1.257-2.742 2.801-2.742.377 0 .68.297.68.666a.672.672 0 01-.68.666c-.793 0-1.44.633-1.44 1.41a.672.672 0 01-.68.667z"/></svg><svg fill="none" viewBox="0 0 42 42" id="shield" xmlns="http://www.w3.org/2000/svg"><path d="M21 40.688S3.937 32.95 3.937 8.867C14.552 6.58 17.67 2.625 21 2.625c3.33 0 6.449 3.954 17.063 6.243C38.063 32.153 21 40.688 21 40.688z" stroke="#E5173E" stroke-width="2" stroke-miterlimit="10" stroke-linecap="round"/><path d="M15.845 27.645c-.168 0-.337-.084-.505-.168-.252-.168-.42-.588-.335-.924l1.428-5.46-4.284-3.528c-.336-.168-.42-.588-.336-.924a.807.807 0 01.755-.588l5.629-.336 2.015-5.292c.169-.168.505-.42.84-.42.337 0 .672.252.756.504l2.017 5.292 5.628.336c.335 0 .672.252.756.588a.948.948 0 01-.253.924l-4.367 3.528 1.428 5.46c.084.336 0 .672-.337.924-.252.168-.671.252-.924 0l-4.704-3.108-4.703 3.024c-.169.084-.337.168-.505.168zm5.207-5.04c.169 0 .337.084.42.168l3.36 2.184-1.008-3.864c-.084-.336 0-.672.252-.84l3.108-2.52-4.032-.252c-.335 0-.588-.252-.756-.504l-1.344-3.78-1.427 3.696c-.169.336-.42.504-.756.588l-4.033.168 3.109 2.52c.252.168.335.588.252.84l-1.008 3.864 3.36-2.184c.168 0 .335-.084.503-.084z" fill="#E5173E"/></svg><svg fill="none" viewBox="0 0 50 50" id="ticket" xmlns="http://www.w3.org/2000/svg"><path d="M8 10.166V8.381A2.387 2.387 0 0110.395 6C11.718 6 13 7.065 13 8.381v.976" stroke="#E5173E" stroke-width="2" stroke-miterlimit="10" stroke-linecap="round"/><path d="M21 28h18M12 13v4.308c0 .986-1.01 1.785-2 1.785h-.204c-.991 0-1.796-.8-1.796-1.785V9.57L12 13zm9 5h18-18zm0 5h18-18z" stroke="#E5173E" stroke-width="2" stroke-miterlimit="10" stroke-linecap="round"/><path d="M45 37.107H5a2 2 0 01-2-2V12a2 2 0 012-2h40a2 2 0 012 2v23.107a2 2 0 01-2 2z" stroke="#E5173E" stroke-width="2" stroke-miterlimit="10"/><path d="M5.14 37.1L41.46 43c1 .15 2.38-.93 2.54-1.91l.37-4.74" stroke="#E5173E" stroke-width="2" stroke-miterlimit="10"/></svg></svg>