<svg width="22" height="15" viewBox="0 0 22 15" xmlns="http://www.w3.org/2000/svg">
<path d="M21.6285 12.5001C21.6285 12.9386 21.4991 13.3451 21.2913 13.7024L14.6609 6.63708L21.2199 1.17186C21.4748 1.55725 21.6289 2.01025 21.6289 2.49993L21.6285 12.5001ZM11.1289 7.91982L20.2548 0.314913C19.8804 0.119535 19.4584 0 19.0036 0H3.2538C2.7985 0 2.37653 0.119535 2.00346 0.314913L11.1289 7.91982ZM13.6729 7.45981L11.5604 9.2211C11.4371 9.32373 11.283 9.37485 11.1285 9.37485C10.974 9.37485 10.8203 9.32373 10.6965 9.2211L8.58365 7.4594L1.86972 14.6154C2.27222 14.8557 2.74397 15 3.2538 15H19.0036C19.5134 15 19.9856 14.8561 20.3877 14.6154L13.6729 7.45981ZM1.0379 1.17186C0.782548 1.55767 0.628906 2.01066 0.628906 2.49993V12.4997C0.628906 12.9382 0.757879 13.3446 0.966052 13.702L7.59558 6.63543L1.0379 1.17186Z"/>
</svg>
