<svg width="18" height="17" viewBox="0 0 18 17" xmlns="http://www.w3.org/2000/svg">
<path d="M15.7514 0H1.39129C0.645957 0 0 0.57552 0 1.34289V15.2034C0 15.9229 0.596268 16.5464 1.39129 16.5464H9.44089C9.44089 15.9229 9.44089 12.9013 9.44089 10.1676H7.99991V7.3859H9.44089C9.44089 6.37873 9.44089 5.65933 9.44089 5.5634C9.44089 5.17972 9.3912 2.73372 12.5216 2.73372C12.9191 2.73372 13.9129 2.73372 14.7576 2.73372C14.7576 3.78885 14.7576 5.17973 14.7576 5.51546C14.1116 5.51546 13.4657 5.51546 12.8197 5.51546C12.5216 5.51546 12.3228 5.65934 12.3228 5.99506C12.3228 6.04302 12.3228 6.57057 12.3228 7.3859H14.7079L14.211 10.1676H12.2732C12.2732 12.8534 12.2732 15.9229 12.2732 16.5464H15.7017C16.447 16.5464 17.093 15.9708 17.093 15.2034V1.34289C17.1427 0.62348 16.4967 0 15.7514 0Z"/>
</svg>
