<svg width="18" height="17" viewBox="0 0 18 17" xmlns="http://www.w3.org/2000/svg">
<path d="M15.7294 0H2.43272C1.38324 0 0.533203 0.822722 0.533203 1.83849V14.7079C0.533203 15.7236 1.38324 16.5464 2.43272 16.5464H15.7294C16.7788 16.5464 17.6289 15.7236 17.6289 14.7079V1.83849C17.6289 0.822722 16.7788 0 15.7294 0ZM6.23176 12.8694H3.83362V6.4347H6.23176V12.8694ZM4.99232 5.25347C4.26101 5.25347 3.77188 4.78006 3.77188 4.15038C3.77188 3.5207 4.26101 3.04729 5.07305 3.04729C5.80437 3.04729 6.29349 3.5207 6.29349 4.15038C6.29349 4.78006 5.80437 5.25347 4.99232 5.25347ZM14.7796 12.8694H12.4622V9.35329C12.4622 8.3789 11.8448 8.15828 11.6121 8.15828C11.3795 8.15828 10.6054 8.30995 10.6054 9.35329C10.6054 9.50497 10.6054 12.8694 10.6054 12.8694H8.20726V6.4347H10.6054V7.33096C10.9141 6.80699 11.5314 6.4347 12.6901 6.4347C13.8488 6.4347 14.7796 7.33096 14.7796 9.35329V12.8694Z"/>
</svg>
