<svg width="21" height="17" viewBox="0 0 21 17" xmlns="http://www.w3.org/2000/svg">
<path d="M20.0839 0.276873C19.2665 0.775245 18.3946 1.10749 17.4681 1.32899C16.7052 0.498368 15.6698 0 14.4709 0C12.182 0 10.3837 1.93811 10.3837 4.26384C10.3837 4.59609 10.4382 4.92834 10.4927 5.26059C7.05942 5.09447 4.06214 3.37785 2.0458 0.775241C1.71882 1.38436 1.50084 2.1596 1.50084 2.93485C1.50084 4.42996 2.20928 5.70358 3.2992 6.47882C2.64525 6.47882 1.9913 6.25732 1.44635 5.92508V5.98045C1.44635 8.02931 2.86324 9.80131 4.7161 10.1889C4.38912 10.2997 4.00765 10.355 3.62618 10.355C3.3537 10.355 3.08122 10.3551 2.86323 10.2997C3.40819 12.0163 4.87958 13.2345 6.67795 13.2899C5.26105 14.4528 3.51719 15.1173 1.60983 15.1173C1.28286 15.1173 0.955882 15.1173 0.628906 15.0619C2.42727 16.2801 4.60711 17 6.89594 17C14.4164 17 18.5581 10.4658 18.5581 4.87296C18.5581 4.70684 18.5581 4.48534 18.5581 4.31921C19.3755 3.71009 20.0295 2.99022 20.6289 2.10423C19.9205 2.43648 19.103 2.65798 18.2856 2.76873C19.1575 2.10424 19.8115 1.27362 20.0839 0.276873Z"/>
</svg>
