<svg width="45" height="45" viewBox="0 0 45 45" fill="none" xmlns="http://www.w3.org/2000/svg">
<path d="M27.3602 15.7499C26.1902 11.3399 28.8902 7.73985 29.2503 7.28985C29.8803 6.29985 31.0503 4.49985 29.2503 4.49985C27.4502 4.49985 25.3802 5.84985 24.0302 4.49985C21.7802 2.15985 20.6102 2.15985 19.0802 4.31985C18.1802 5.57985 16.7402 5.57985 14.9402 5.57985C11.1602 5.57985 11.9702 7.10985 13.1402 8.18985C13.6802 8.72985 17.0102 11.5199 16.5602 16.1099C10.6202 17.4599 4.50024 25.0199 4.50024 31.5899C4.50024 40.0499 9.27025 42.2999 22.5002 42.2999C35.7303 42.2999 40.5003 40.0499 40.5003 31.5899C40.5003 24.4799 34.0203 17.6399 27.3602 15.7499Z" stroke="#E5173E" stroke-width="2" stroke-miterlimit="10" stroke-linecap="round"/>
<path d="M12.2397 6.38981C14.3097 9.98982 16.9197 10.7098 18.3597 9.35982C19.9797 7.82981 20.8797 7.10982 22.5897 9.26982C23.4897 10.3498 25.0197 9.98982 26.0997 8.99982C28.0797 7.19982 29.7897 6.47981 29.6097 5.30981" stroke="#E5173E" stroke-width="2" stroke-miterlimit="10" stroke-linecap="round"/>
<path d="M16.4702 15.9299C16.4702 15.9299 21.3302 18.8999 27.3602 15.5699C29.2502 14.4899 32.7602 10.9799 37.3502 13.4999" stroke="#E5173E" stroke-width="2" stroke-miterlimit="10" stroke-linecap="round"/>
<path d="M27.3599 15.5703C28.8899 14.9403 33.2999 13.7703 36.4499 17.1003" stroke="#E5173E" stroke-width="2" stroke-miterlimit="10" stroke-linecap="round"/>
<path d="M16.2 29.7H24.2999C26.288 29.7 27.8999 28.0881 27.8999 26.1C27.8999 24.1119 26.288 22.5 24.2999 22.5H18.9V36.9" stroke="#E5173E" stroke-width="2" stroke-miterlimit="10" stroke-linecap="round" stroke-linejoin="round"/>
<path d="M16.2 33.3H23.4" stroke="#E5173E" stroke-width="2" stroke-miterlimit="10" stroke-linecap="round" stroke-linejoin="round"/>
</svg>
