<svg width="38" height="39" viewBox="0 0 38 39" fill="none" xmlns="http://www.w3.org/2000/svg">
<path d="M2.56003 5.55737H11.9201C12.3881 5.55737 12.7001 5.87052 12.7001 6.34025V11.1941C12.7001 11.5855 12.5441 11.977 12.2321 12.2901L9.81406 14.717C9.65806 14.8736 9.50206 14.9519 9.26806 14.9519H5.21204C4.97804 14.9519 4.82204 14.8736 4.66604 14.717L2.24803 12.2901C1.93603 11.977 1.78003 11.5855 1.78003 11.1941V6.34025C1.78003 5.87052 2.09203 5.55737 2.56003 5.55737Z" stroke="#E5173E" stroke-width="2" stroke-miterlimit="10"/>
<path d="M7.23999 14.952V36.0898C7.23999 36.9509 7.94199 37.6555 8.79999 37.6555H35.32C36.178 37.6555 36.88 36.9509 36.88 36.0898V7.12314C36.88 6.26197 36.178 5.55737 35.32 5.55737H15.04" stroke="#E5173E" stroke-width="2" stroke-miterlimit="10"/>
<path d="M24.1658 13.3862C29.4699 13.3862 29.7039 17.9269 29.7039 18.788C29.7039 19.6492 29.4699 24.1898 24.1658 24.1898H17.6138V32.175H15.8198V13.3862H24.1658ZM23.7758 22.6241C26.7399 22.6241 27.9099 20.8235 27.9099 18.788C27.9099 16.6743 26.6619 14.952 23.7758 14.952H17.6138V22.6241H23.7758Z" fill="#E5173E"/>
<path d="M4.12012 0.860352V5.5564M10.3601 0.860352V5.5564V0.860352Z" stroke="#E5173E" stroke-width="2" stroke-miterlimit="10"/>
</svg>
