<svg width="50" height="50" viewBox="0 0 50 50" fill="none" xmlns="http://www.w3.org/2000/svg">
<path d="M7.99988 10.166V8.381C7.99988 7.065 9.07188 6 10.3949 6C11.7179 6 12.9999 7.065 12.9999 8.381V9.357" stroke="#E5173E" stroke-width="2" stroke-miterlimit="10" stroke-linecap="round"/>
<path d="M20.9999 27.9998H38.9999M11.9999 12.9998V17.3078C11.9999 18.2938 10.9909 19.0928 9.99988 19.0928H9.79588C8.80488 19.0928 7.99988 18.2928 7.99988 17.3078V9.5708L11.9999 12.9998ZM20.9999 17.9998H38.9999H20.9999ZM20.9999 22.9998H38.9999H20.9999Z" stroke="#E5173E" stroke-width="2" stroke-miterlimit="10" stroke-linecap="round"/>
<path d="M45 37.107H5C3.895 37.107 3 36.212 3 35.107V12C3 10.895 3.895 10 5 10H45C46.105 10 47 10.895 47 12V35.107C47 36.212 46.105 37.107 45 37.107Z" stroke="#E5173E" stroke-width="2" stroke-miterlimit="10"/>
<path d="M5.13965 37.1001L41.4596 43.0001C42.4596 43.1501 43.8396 42.0701 43.9996 41.0901L44.3696 36.3501" stroke="#E5173E" stroke-width="2" stroke-miterlimit="10"/>
</svg>
