<svg width="45" height="45" fill="none" xmlns="http://www.w3.org/2000/svg"><path d="M27.36 15.75c-1.17-4.41 1.53-8.01 1.89-8.46.63-.99 1.8-2.79 0-2.79s-3.87 1.35-5.22 0c-2.25-2.34-3.42-2.34-4.95-.18-.9 1.26-2.34 1.26-4.14 1.26-3.78 0-2.97 1.53-1.8 2.61.54.54 3.87 3.33 3.42 7.92C10.62 17.46 4.5 25.02 4.5 31.59c0 8.46 4.77 10.71 18 10.71s18-2.25 18-10.71c0-7.11-6.48-13.95-13.14-15.84z" stroke="#E5173E" stroke-width="2" stroke-miterlimit="10" stroke-linecap="round"/><path d="M12.24 6.39c2.07 3.6 4.68 4.32 6.12 2.97 1.62-1.53 2.52-2.25 4.23-.09.9 1.08 2.43.72 3.51-.27 1.98-1.8 3.69-2.52 3.51-3.69M16.47 15.93s4.86 2.97 10.89-.36c1.89-1.08 5.4-4.59 9.99-2.07m-9.99 2.07c1.53-.63 5.94-1.8 9.09 1.53" stroke="#E5173E" stroke-width="2" stroke-miterlimit="10" stroke-linecap="round"/><path d="M16.2 29.7h8.1a3.6 3.6 0 000-7.2h-5.4v14.4m-2.7-3.6h7.2" stroke="#E5173E" stroke-width="2" stroke-miterlimit="10" stroke-linecap="round" stroke-linejoin="round"/></svg>