<svg width="38" height="39" fill="none" xmlns="http://www.w3.org/2000/svg"><path d="M2.56 5.557h9.36c.468 0 .78.314.78.783v4.854c0 .391-.156.783-.468 1.096l-2.418 2.427a.707.707 0 01-.546.235H5.212a.707.707 0 01-.546-.235L2.248 12.29a1.548 1.548 0 01-.468-1.096V6.34c0-.47.312-.783.78-.783z" stroke="#E5173E" stroke-width="2" stroke-miterlimit="10"/><path d="M7.24 14.952V36.09c0 .86.702 1.566 1.56 1.566h26.52c.858 0 1.56-.705 1.56-1.566V7.123c0-.861-.702-1.566-1.56-1.566H15.04" stroke="#E5173E" stroke-width="2" stroke-miterlimit="10"/><path d="M24.166 13.386c5.304 0 5.538 4.54 5.538 5.402 0 .861-.234 5.402-5.538 5.402h-6.552v7.985H15.82V13.386h8.346zm-.39 9.238c2.964 0 4.134-1.8 4.134-3.836 0-2.114-1.248-3.836-4.134-3.836h-6.162v7.672h6.162z" fill="#E5173E"/><path d="M4.12.86v4.696M10.36.86v4.696V.86z" stroke="#E5173E" stroke-width="2" stroke-miterlimit="10"/></svg>