<svg width="42" height="42" fill="none" xmlns="http://www.w3.org/2000/svg"><path d="M21 40.688S3.937 32.95 3.937 8.867C14.552 6.58 17.67 2.625 21 2.625c3.33 0 6.449 3.954 17.063 6.243C38.063 32.153 21 40.688 21 40.688z" stroke="#E5173E" stroke-width="2" stroke-miterlimit="10" stroke-linecap="round"/><path d="M15.845 27.645c-.168 0-.337-.084-.505-.168-.252-.168-.42-.588-.335-.924l1.428-5.46-4.284-3.528c-.336-.168-.42-.588-.336-.924a.807.807 0 01.755-.588l5.629-.336 2.015-5.292c.169-.168.505-.42.84-.42.337 0 .672.252.756.504l2.017 5.292 5.628.336c.335 0 .672.252.756.588a.948.948 0 01-.253.924l-4.367 3.528 1.428 5.46c.084.336 0 .672-.337.924-.252.168-.671.252-.924 0l-4.704-3.108-4.703 3.024c-.169.084-.337.168-.505.168zm5.207-5.04c.169 0 .337.084.42.168l3.36 2.184-1.008-3.864c-.084-.336 0-.672.252-.84l3.108-2.52-4.032-.252c-.335 0-.588-.252-.756-.504l-1.344-3.78-1.427 3.696c-.169.336-.42.504-.756.588l-4.033.168 3.109 2.52c.252.168.335.588.252.84l-1.008 3.864 3.36-2.184c.168 0 .335-.084.503-.084z" fill="#E5173E"/></svg>