<svg width="50" height="50" fill="none" xmlns="http://www.w3.org/2000/svg"><path d="M8 10.166V8.381A2.387 2.387 0 0110.395 6C11.718 6 13 7.065 13 8.381v.976" stroke="#E5173E" stroke-width="2" stroke-miterlimit="10" stroke-linecap="round"/><path d="M21 28h18M12 13v4.308c0 .986-1.01 1.785-2 1.785h-.204c-.991 0-1.796-.8-1.796-1.785V9.57L12 13zm9 5h18-18zm0 5h18-18z" stroke="#E5173E" stroke-width="2" stroke-miterlimit="10" stroke-linecap="round"/><path d="M45 37.107H5a2 2 0 01-2-2V12a2 2 0 012-2h40a2 2 0 012 2v23.107a2 2 0 01-2 2z" stroke="#E5173E" stroke-width="2" stroke-miterlimit="10"/><path d="M5.14 37.1L41.46 43c1 .15 2.38-.93 2.54-1.91l.37-4.74" stroke="#E5173E" stroke-width="2" stroke-miterlimit="10"/></svg>