<svg width="20" height="24" viewBox="0 0 20 24" xmlns="http://www.w3.org/2000/svg">
<path d="M4.71875 4.875C4.49409 4.875 4.3125 5.057 4.3125 5.28125V6.09375C4.3125 6.318 4.49409 6.5 4.71875 6.5C4.94341 6.5 5.125 6.318 5.125 6.09375V5.28125C5.125 5.057 4.94341 4.875 4.71875 4.875ZM2.6875 4.875C2.46284 4.875 2.28125 5.057 2.28125 5.28125V6.09375C2.28125 6.318 2.46284 6.5 2.6875 6.5C2.91216 6.5 3.09375 6.318 3.09375 6.09375V5.28125C3.09375 5.057 2.91216 4.875 2.6875 4.875ZM6.75 4.875C6.52534 4.875 6.34375 5.057 6.34375 5.28125V6.09375C6.34375 6.318 6.52534 6.5 6.75 6.5C6.97466 6.5 7.15625 6.318 7.15625 6.09375V5.28125C7.15625 5.057 6.97466 4.875 6.75 4.875ZM8.78125 4.875C8.55659 4.875 8.375 5.057 8.375 5.28125V6.09375C8.375 6.318 8.55659 6.5 8.78125 6.5C9.00591 6.5 9.1875 6.318 9.1875 6.09375V5.28125C9.1875 5.057 9.00591 4.875 8.78125 4.875ZM11.2188 4.875C10.9941 4.875 10.8125 5.057 10.8125 5.28125V6.09375C10.8125 6.318 10.9941 6.5 11.2188 6.5C11.4434 6.5 11.625 6.318 11.625 6.09375V5.28125C11.625 5.057 11.4434 4.875 11.2188 4.875ZM13.25 4.875C13.0253 4.875 12.8438 5.057 12.8438 5.28125V6.09375C12.8438 6.318 13.0253 6.5 13.25 6.5C13.4747 6.5 13.6562 6.318 13.6562 6.09375V5.28125C13.6562 5.057 13.4747 4.875 13.25 4.875ZM15.2812 4.875C15.0566 4.875 14.875 5.057 14.875 5.28125V6.09375C14.875 6.318 15.0566 6.5 15.2812 6.5C15.5059 6.5 15.6875 6.318 15.6875 6.09375V5.28125C15.6875 5.057 15.5059 4.875 15.2812 4.875ZM17.3125 4.875C17.0878 4.875 16.9062 5.057 16.9062 5.28125V6.09375C16.9062 6.318 17.0878 6.5 17.3125 6.5C17.5372 6.5 17.7188 6.318 17.7188 6.09375V5.28125C17.7188 5.057 17.5372 4.875 17.3125 4.875Z"/>
<path d="M18.5312 3.25H13.8736L12.6106 1.35525C12.3839 1.01562 12.0048 0.8125 11.5966 0.8125H8.40344C7.99516 0.8125 7.61612 1.01562 7.38944 1.35525L6.12641 3.25H1.46875C0.796812 3.25 0.25 3.79681 0.25 4.46875V6.90625C0.25 7.57819 0.796812 8.125 1.46875 8.125H1.50938L2.94303 21.7437C3.0515 22.7809 3.92006 23.5625 4.96291 23.5625H15.0375C16.0799 23.5625 16.9485 22.7809 17.0574 21.7437L18.4906 8.125H18.5312C19.2032 8.125 19.75 7.57819 19.75 6.90625V4.46875C19.75 3.79681 19.2032 3.25 18.5312 3.25ZM8.06544 1.80578C8.141 1.69284 8.26734 1.625 8.40344 1.625H11.5962C11.7323 1.625 11.8586 1.69284 11.9342 1.80578L12.8974 3.25H7.10262L8.06544 1.80578ZM16.2493 21.6588C16.1839 22.2812 15.6627 22.75 15.0371 22.75H4.96291C4.33728 22.75 3.81647 22.2812 3.75106 21.6588L2.32594 8.125H17.6741L16.2493 21.6588ZM18.9375 6.90625C18.9375 7.13009 18.7555 7.3125 18.5312 7.3125H18.125H1.875C1.86606 7.3125 1.85834 7.31697 1.84941 7.31778C1.84088 7.31697 1.83316 7.3125 1.82422 7.3125H1.46875C1.2445 7.3125 1.0625 7.13009 1.0625 6.90625V4.46875C1.0625 4.24491 1.2445 4.0625 1.46875 4.0625H5.58488H14.4151H18.5312C18.7555 4.0625 18.9375 4.24491 18.9375 4.46875V6.90625Z"/>
<path d="M12.4375 21.5312C12.4375 21.7555 12.6191 21.9375 12.8438 21.9375H14.4688C14.6934 21.9375 14.875 21.7555 14.875 21.5312C14.875 21.307 14.6934 21.125 14.4688 21.125H12.8438C12.6191 21.125 12.4375 21.307 12.4375 21.5312ZM5.53125 21.9375H11.2188C11.4434 21.9375 11.625 21.7555 11.625 21.5312C11.625 21.307 11.4434 21.125 11.2188 21.125H5.53125C5.30659 21.125 5.125 21.307 5.125 21.5312C5.125 21.7555 5.30659 21.9375 5.53125 21.9375Z"/>
</svg>
