<svg width="76" height="54" viewBox="0 0 76 54" fill="none" xmlns="http://www.w3.org/2000/svg">
<path d="M6.30039 52.3H70.1004C72.5303 52.3 74.5004 50.3299 74.5004 47.9V6.09995C74.5004 3.67005 72.5303 1.69995 70.1004 1.69995H6.30039C3.87049 1.69995 1.90039 3.67005 1.90039 6.09995V47.9C1.90039 50.3299 3.87049 52.3 6.30039 52.3Z" stroke="white" stroke-width="2" stroke-miterlimit="10"/>
<path d="M18.4004 32.5C18.1087 32.5 17.8289 32.6159 17.6226 32.8222C17.4163 33.0285 17.3004 33.3083 17.3004 33.6C17.3004 33.8917 17.4163 34.1715 17.6226 34.3778C17.8289 34.5841 18.1087 34.7 18.4004 34.7C18.6921 34.7 18.9719 34.5841 19.1782 34.3778C19.3845 34.1715 19.5004 33.8917 19.5004 33.6C19.5004 33.3083 19.3845 33.0285 19.1782 32.8222C18.9719 32.6159 18.6921 32.5 18.4004 32.5ZM15.1004 32.5C14.8087 32.5 14.5289 32.6159 14.3226 32.8222C14.1163 33.0285 14.0004 33.3083 14.0004 33.6C14.0004 33.8917 14.1163 34.1715 14.3226 34.3778C14.5289 34.5841 14.8087 34.7 15.1004 34.7C15.3921 34.7 15.6719 34.5841 15.8782 34.3778C16.0845 34.1715 16.2004 33.8917 16.2004 33.6C16.2004 33.3083 16.0845 33.0285 15.8782 32.8222C15.6719 32.6159 15.3921 32.5 15.1004 32.5ZM11.8004 32.5C11.5087 32.5 11.2289 32.6159 11.0226 32.8222C10.8163 33.0285 10.7004 33.3083 10.7004 33.6C10.7004 33.8917 10.8163 34.1715 11.0226 34.3778C11.2289 34.5841 11.5087 34.7 11.8004 34.7C12.0921 34.7 12.3719 34.5841 12.5782 34.3778C12.7845 34.1715 12.9004 33.8917 12.9004 33.6C12.9004 33.3083 12.7845 33.0285 12.5782 32.8222C12.3719 32.6159 12.0921 32.5 11.8004 32.5ZM8.50039 32.5C8.20865 32.5 7.92886 32.6159 7.72257 32.8222C7.51628 33.0285 7.40039 33.3083 7.40039 33.6C7.40039 33.8917 7.51628 34.1715 7.72257 34.3778C7.92886 34.5841 8.20865 34.7 8.50039 34.7C8.79213 34.7 9.07192 34.5841 9.27821 34.3778C9.4845 34.1715 9.60039 33.8917 9.60039 33.6C9.60039 33.3083 9.4845 33.0285 9.27821 32.8222C9.07192 32.6159 8.79213 32.5 8.50039 32.5ZM8.50039 43.5C8.20865 43.5 7.92886 43.6159 7.72257 43.8222C7.51628 44.0285 7.40039 44.3083 7.40039 44.6C7.40039 44.8917 7.51628 45.1715 7.72257 45.3778C7.92886 45.5841 8.20865 45.7 8.50039 45.7C8.79213 45.7 9.07192 45.5841 9.27821 45.3778C9.4845 45.1715 9.60039 44.8917 9.60039 44.6C9.60039 44.3083 9.4845 44.0285 9.27821 43.8222C9.07192 43.6159 8.79213 43.5 8.50039 43.5ZM12.9004 43.5C12.6087 43.5 12.3289 43.6159 12.1226 43.8222C11.9163 44.0285 11.8004 44.3083 11.8004 44.6C11.8004 44.8917 11.9163 45.1715 12.1226 45.3778C12.3289 45.5841 12.6087 45.7 12.9004 45.7C13.1921 45.7 13.4719 45.5841 13.6782 45.3778C13.8845 45.1715 14.0004 44.8917 14.0004 44.6C14.0004 44.3083 13.8845 44.0285 13.6782 43.8222C13.4719 43.6159 13.1921 43.5 12.9004 43.5ZM17.3004 43.5C17.0087 43.5 16.7289 43.6159 16.5226 43.8222C16.3163 44.0285 16.2004 44.3083 16.2004 44.6C16.2004 44.8917 16.3163 45.1715 16.5226 45.3778C16.7289 45.5841 17.0087 45.7 17.3004 45.7C17.5921 45.7 17.8719 45.5841 18.0782 45.3778C18.2845 45.1715 18.4004 44.8917 18.4004 44.6C18.4004 44.3083 18.2845 44.0285 18.0782 43.8222C17.8719 43.6159 17.5921 43.5 17.3004 43.5ZM21.7004 43.5C21.4087 43.5 21.1289 43.6159 20.9226 43.8222C20.7163 44.0285 20.6004 44.3083 20.6004 44.6C20.6004 44.8917 20.7163 45.1715 20.9226 45.3778C21.1289 45.5841 21.4087 45.7 21.7004 45.7C21.9921 45.7 22.2719 45.5841 22.4782 45.3778C22.6845 45.1715 22.8004 44.8917 22.8004 44.6C22.8004 44.3083 22.6845 44.0285 22.4782 43.8222C22.2719 43.6159 21.9921 43.5 21.7004 43.5ZM26.1004 43.5C25.8087 43.5 25.5289 43.6159 25.3226 43.8222C25.1163 44.0285 25.0004 44.3083 25.0004 44.6C25.0004 44.8917 25.1163 45.1715 25.3226 45.3778C25.5289 45.5841 25.8087 45.7 26.1004 45.7C26.3921 45.7 26.6719 45.5841 26.8782 45.3778C27.0845 45.1715 27.2004 44.8917 27.2004 44.6C27.2004 44.3083 27.0845 44.0285 26.8782 43.8222C26.6719 43.6159 26.3921 43.5 26.1004 43.5ZM30.5004 43.5C30.2087 43.5 29.9289 43.6159 29.7226 43.8222C29.5163 44.0285 29.4004 44.3083 29.4004 44.6C29.4004 44.8917 29.5163 45.1715 29.7226 45.3778C29.9289 45.5841 30.2087 45.7 30.5004 45.7C30.7921 45.7 31.0719 45.5841 31.2782 45.3778C31.4845 45.1715 31.6004 44.8917 31.6004 44.6C31.6004 44.3083 31.4845 44.0285 31.2782 43.8222C31.0719 43.6159 30.7921 43.5 30.5004 43.5ZM34.9004 43.5C34.6087 43.5 34.3289 43.6159 34.1226 43.8222C33.9163 44.0285 33.8004 44.3083 33.8004 44.6C33.8004 44.8917 33.9163 45.1715 34.1226 45.3778C34.3289 45.5841 34.6087 45.7 34.9004 45.7C35.1921 45.7 35.4719 45.5841 35.6782 45.3778C35.8845 45.1715 36.0004 44.8917 36.0004 44.6C36.0004 44.3083 35.8845 44.0285 35.6782 43.8222C35.4719 43.6159 35.1921 43.5 34.9004 43.5ZM47.0004 43.5C46.7087 43.5 46.4289 43.6159 46.2226 43.8222C46.0163 44.0285 45.9004 44.3083 45.9004 44.6C45.9004 44.8917 46.0163 45.1715 46.2226 45.3778C46.4289 45.5841 46.7087 45.7 47.0004 45.7C47.2921 45.7 47.5719 45.5841 47.7782 45.3778C47.9845 45.1715 48.1004 44.8917 48.1004 44.6C48.1004 44.3083 47.9845 44.0285 47.7782 43.8222C47.5719 43.6159 47.2921 43.5 47.0004 43.5ZM51.4004 43.5C51.1087 43.5 50.8289 43.6159 50.6226 43.8222C50.4163 44.0285 50.3004 44.3083 50.3004 44.6C50.3004 44.8917 50.4163 45.1715 50.6226 45.3778C50.8289 45.5841 51.1087 45.7 51.4004 45.7C51.6921 45.7 51.9719 45.5841 52.1782 45.3778C52.3845 45.1715 52.5004 44.8917 52.5004 44.6C52.5004 44.3083 52.3845 44.0285 52.1782 43.8222C51.9719 43.6159 51.6921 43.5 51.4004 43.5ZM34.9004 32.5C34.6087 32.5 34.3289 32.6159 34.1226 32.8222C33.9163 33.0285 33.8004 33.3083 33.8004 33.6C33.8004 33.8917 33.9163 34.1715 34.1226 34.3778C34.3289 34.5841 34.6087 34.7 34.9004 34.7C35.1921 34.7 35.4719 34.5841 35.6782 34.3778C35.8845 34.1715 36.0004 33.8917 36.0004 33.6C36.0004 33.3083 35.8845 33.0285 35.6782 32.8222C35.4719 32.6159 35.1921 32.5 34.9004 32.5ZM31.6004 32.5C31.3087 32.5 31.0289 32.6159 30.8226 32.8222C30.6163 33.0285 30.5004 33.3083 30.5004 33.6C30.5004 33.8917 30.6163 34.1715 30.8226 34.3778C31.0289 34.5841 31.3087 34.7 31.6004 34.7C31.8921 34.7 32.1719 34.5841 32.3782 34.3778C32.5845 34.1715 32.7004 33.8917 32.7004 33.6C32.7004 33.3083 32.5845 33.0285 32.3782 32.8222C32.1719 32.6159 31.8921 32.5 31.6004 32.5ZM28.3004 32.5C28.0087 32.5 27.7289 32.6159 27.5226 32.8222C27.3163 33.0285 27.2004 33.3083 27.2004 33.6C27.2004 33.8917 27.3163 34.1715 27.5226 34.3778C27.7289 34.5841 28.0087 34.7 28.3004 34.7C28.5921 34.7 28.8719 34.5841 29.0782 34.3778C29.2845 34.1715 29.4004 33.8917 29.4004 33.6C29.4004 33.3083 29.2845 33.0285 29.0782 32.8222C28.8719 32.6159 28.5921 32.5 28.3004 32.5ZM25.0004 32.5C24.7087 32.5 24.4289 32.6159 24.2226 32.8222C24.0163 33.0285 23.9004 33.3083 23.9004 33.6C23.9004 33.8917 24.0163 34.1715 24.2226 34.3778C24.4289 34.5841 24.7087 34.7 25.0004 34.7C25.2921 34.7 25.5719 34.5841 25.7782 34.3778C25.9845 34.1715 26.1004 33.8917 26.1004 33.6C26.1004 33.3083 25.9845 33.0285 25.7782 32.8222C25.5719 32.6159 25.2921 32.5 25.0004 32.5ZM51.4004 32.5C51.1087 32.5 50.8289 32.6159 50.6226 32.8222C50.4163 33.0285 50.3004 33.3083 50.3004 33.6C50.3004 33.8917 50.4163 34.1715 50.6226 34.3778C50.8289 34.5841 51.1087 34.7 51.4004 34.7C51.6921 34.7 51.9719 34.5841 52.1782 34.3778C52.3845 34.1715 52.5004 33.8917 52.5004 33.6C52.5004 33.3083 52.3845 33.0285 52.1782 32.8222C51.9719 32.6159 51.6921 32.5 51.4004 32.5ZM48.1004 32.5C47.8087 32.5 47.5289 32.6159 47.3226 32.8222C47.1163 33.0285 47.0004 33.3083 47.0004 33.6C47.0004 33.8917 47.1163 34.1715 47.3226 34.3778C47.5289 34.5841 47.8087 34.7 48.1004 34.7C48.3921 34.7 48.6719 34.5841 48.8782 34.3778C49.0845 34.1715 49.2004 33.8917 49.2004 33.6C49.2004 33.3083 49.0845 33.0285 48.8782 32.8222C48.6719 32.6159 48.3921 32.5 48.1004 32.5ZM44.8004 32.5C44.5087 32.5 44.2289 32.6159 44.0226 32.8222C43.8163 33.0285 43.7004 33.3083 43.7004 33.6C43.7004 33.8917 43.8163 34.1715 44.0226 34.3778C44.2289 34.5841 44.5087 34.7 44.8004 34.7C45.0921 34.7 45.3719 34.5841 45.5782 34.3778C45.7845 34.1715 45.9004 33.8917 45.9004 33.6C45.9004 33.3083 45.7845 33.0285 45.5782 32.8222C45.3719 32.6159 45.0921 32.5 44.8004 32.5ZM41.5004 32.5C41.2087 32.5 40.9289 32.6159 40.7226 32.8222C40.5163 33.0285 40.4004 33.3083 40.4004 33.6C40.4004 33.8917 40.5163 34.1715 40.7226 34.3778C40.9289 34.5841 41.2087 34.7 41.5004 34.7C41.7921 34.7 42.0719 34.5841 42.2782 34.3778C42.4845 34.1715 42.6004 33.8917 42.6004 33.6C42.6004 33.3083 42.4845 33.0285 42.2782 32.8222C42.0719 32.6159 41.7921 32.5 41.5004 32.5ZM67.9004 32.5C67.6087 32.5 67.3289 32.6159 67.1226 32.8222C66.9163 33.0285 66.8004 33.3083 66.8004 33.6C66.8004 33.8917 66.9163 34.1715 67.1226 34.3778C67.3289 34.5841 67.6087 34.7 67.9004 34.7C68.1921 34.7 68.4719 34.5841 68.6782 34.3778C68.8845 34.1715 69.0004 33.8917 69.0004 33.6C69.0004 33.3083 68.8845 33.0285 68.6782 32.8222C68.4719 32.6159 68.1921 32.5 67.9004 32.5ZM64.6004 32.5C64.3087 32.5 64.0289 32.6159 63.8226 32.8222C63.6163 33.0285 63.5004 33.3083 63.5004 33.6C63.5004 33.8917 63.6163 34.1715 63.8226 34.3778C64.0289 34.5841 64.3087 34.7 64.6004 34.7C64.8921 34.7 65.1719 34.5841 65.3782 34.3778C65.5845 34.1715 65.7004 33.8917 65.7004 33.6C65.7004 33.3083 65.5845 33.0285 65.3782 32.8222C65.1719 32.6159 64.8921 32.5 64.6004 32.5ZM61.3004 32.5C61.0087 32.5 60.7289 32.6159 60.5226 32.8222C60.3163 33.0285 60.2004 33.3083 60.2004 33.6C60.2004 33.8917 60.3163 34.1715 60.5226 34.3778C60.7289 34.5841 61.0087 34.7 61.3004 34.7C61.5921 34.7 61.8719 34.5841 62.0782 34.3778C62.2845 34.1715 62.4004 33.8917 62.4004 33.6C62.4004 33.3083 62.2845 33.0285 62.0782 32.8222C61.8719 32.6159 61.5921 32.5 61.3004 32.5ZM58.0004 32.5C57.7087 32.5 57.4289 32.6159 57.2226 32.8222C57.0163 33.0285 56.9004 33.3083 56.9004 33.6C56.9004 33.8917 57.0163 34.1715 57.2226 34.3778C57.4289 34.5841 57.7087 34.7 58.0004 34.7C58.2921 34.7 58.5719 34.5841 58.7782 34.3778C58.9845 34.1715 59.1004 33.8917 59.1004 33.6C59.1004 33.3083 58.9845 33.0285 58.7782 32.8222C58.5719 32.6159 58.2921 32.5 58.0004 32.5Z" fill="white"/>
<path d="M17.3 24.8H9.6C8.9928 24.8 8.5 24.3072 8.5 23.7V17.1C8.5 16.4928 8.9928 16 9.6 16H17.3C17.9072 16 18.4 16.4928 18.4 17.1V23.7C18.4 24.3072 17.9072 24.8 17.3 24.8Z" stroke="white" stroke-width="2" stroke-miterlimit="10"/>
<path d="M57.5186 24.7999C57.5186 26.0154 56.5341 26.9999 55.3186 26.9999C54.1031 26.9999 53.1186 26.0154 53.1186 24.7999C53.1186 23.5844 54.1031 22.5999 55.3186 22.5999C56.5341 22.5999 57.5186 23.5844 57.5186 24.7999ZM47.3986 19.3758L48.9837 20.9026C50.6623 19.1602 52.9118 18.1999 55.3186 18.1999C57.7254 18.1999 59.9749 19.1602 61.6535 20.9026L63.2386 19.3758C61.142 17.1989 58.3282 15.9999 55.3186 15.9999C52.309 15.9999 49.4952 17.1989 47.3986 19.3758ZM42.7368 14.703L44.3098 16.2408C47.2358 13.2488 51.1452 11.5999 55.3186 11.5999C59.492 11.5999 63.4014 13.2488 66.3274 16.2419L67.9004 14.7041C64.5564 11.2831 60.0882 9.3999 55.3186 9.3999C50.549 9.3999 46.0808 11.2831 42.7368 14.703Z" fill="white"/>
</svg>
