<svg width="69" height="63" viewBox="0 0 69 63" fill="none" xmlns="http://www.w3.org/2000/svg">
<path d="M38.0913 10.5C38.0913 11.0166 37.6704 11.4375 37.1538 11.4375C36.6372 11.4375 36.2163 11.0166 36.2163 10.5C36.2163 9.98344 36.6372 9.5625 37.1538 9.5625C37.6704 9.5625 38.0913 9.98344 38.0913 10.5ZM41.8413 10.5C41.8413 11.0166 41.4204 11.4375 40.9038 11.4375C40.3872 11.4375 39.9663 11.0166 39.9663 10.5C39.9663 9.98344 40.3872 9.5625 40.9038 9.5625C41.4204 9.5625 41.8413 9.98344 41.8413 10.5ZM30.5913 10.5C30.5913 11.0166 30.1704 11.4375 29.6538 11.4375C29.1372 11.4375 28.7163 11.0166 28.7163 10.5C28.7163 9.98344 29.1372 9.5625 29.6538 9.5625C30.1704 9.5625 30.5913 9.98344 30.5913 10.5ZM34.3413 10.5C34.3413 11.0166 33.9204 11.4375 33.4038 11.4375C32.8872 11.4375 32.4663 11.0166 32.4663 10.5C32.4663 9.98344 32.8872 9.5625 33.4038 9.5625C33.9204 9.5625 34.3413 9.98344 34.3413 10.5ZM23.0913 10.5C23.0913 11.0166 22.6704 11.4375 22.1538 11.4375C21.6372 11.4375 21.2163 11.0166 21.2163 10.5C21.2163 9.98344 21.6372 9.5625 22.1538 9.5625C22.6704 9.5625 23.0913 9.98344 23.0913 10.5ZM26.8413 10.5C26.8413 11.0166 26.4204 11.4375 25.9038 11.4375C25.3872 11.4375 24.9663 11.0166 24.9663 10.5C24.9663 9.98344 25.3872 9.5625 25.9038 9.5625C26.4204 9.5625 26.8413 9.98344 26.8413 10.5ZM15.5913 10.5C15.5913 11.0166 15.1704 11.4375 14.6538 11.4375C14.1372 11.4375 13.7163 11.0166 13.7163 10.5C13.7163 9.98344 14.1372 9.5625 14.6538 9.5625C15.1704 9.5625 15.5913 9.98344 15.5913 10.5ZM19.3413 10.5C19.3413 11.0166 18.9204 11.4375 18.4038 11.4375C17.8872 11.4375 17.4663 11.0166 17.4663 10.5C17.4663 9.98344 17.8872 9.5625 18.4038 9.5625C18.9204 9.5625 19.3413 9.98344 19.3413 10.5ZM11.8413 10.5C11.8413 11.0166 11.4204 11.4375 10.9038 11.4375C10.3872 11.4375 9.96631 11.0166 9.96631 10.5C9.96631 9.98344 10.3872 9.5625 10.9038 9.5625C11.4204 9.5625 11.8413 9.98344 11.8413 10.5ZM45.5913 10.5C45.5913 11.0166 45.1704 11.4375 44.6538 11.4375C44.1372 11.4375 43.7163 11.0166 43.7163 10.5C43.7163 9.98344 44.1372 9.5625 44.6538 9.5625C45.1704 9.5625 45.5913 9.98344 45.5913 10.5ZM49.3413 10.5C49.3413 11.0166 48.9204 11.4375 48.4038 11.4375C47.8872 11.4375 47.4663 11.0166 47.4663 10.5C47.4663 9.98344 47.8872 9.5625 48.4038 9.5625C48.9204 9.5625 49.3413 9.98344 49.3413 10.5ZM53.0913 10.5C53.0913 11.0166 52.6704 11.4375 52.1538 11.4375C51.6372 11.4375 51.2163 11.0166 51.2163 10.5C51.2163 9.98344 51.6372 9.5625 52.1538 9.5625C52.6704 9.5625 53.0913 9.98344 53.0913 10.5ZM56.8413 10.5C56.8413 11.0166 56.4204 11.4375 55.9038 11.4375C55.3872 11.4375 54.9663 11.0166 54.9663 10.5C54.9663 9.98344 55.3872 9.5625 55.9038 9.5625C56.4204 9.5625 56.8413 9.98344 56.8413 10.5ZM60.5913 10.5C60.5913 11.0166 60.1704 11.4375 59.6538 11.4375C59.1372 11.4375 58.7163 11.0166 58.7163 10.5C58.7163 9.98344 59.1372 9.5625 59.6538 9.5625C60.1704 9.5625 60.5913 9.98344 60.5913 10.5ZM8.09131 10.5C8.09131 11.0166 7.67037 11.4375 7.15381 11.4375C6.63725 11.4375 6.21631 11.0166 6.21631 10.5C6.21631 9.98344 6.63725 9.5625 7.15381 9.5625C7.67037 9.5625 8.09131 9.98344 8.09131 10.5ZM4.34131 10.5C4.34131 11.0166 3.92037 11.4375 3.40381 11.4375C2.88725 11.4375 2.46631 11.0166 2.46631 10.5C2.46631 9.98344 2.88725 9.5625 3.40381 9.5625C3.92037 9.5625 4.34131 9.98344 4.34131 10.5Z" fill="white"/>
<path d="M19.3125 49.875V47.5041C19.8844 46.9894 20.25 46.2516 20.25 45.4219C20.25 43.8684 18.9909 42.6094 17.4375 42.6094C15.8841 42.6094 14.625 43.8684 14.625 45.4219C14.625 46.2516 14.9906 46.9894 15.5625 47.5041V49.875M53.0916 31.5938L56.8566 35.0034L61.9097 34.4578L62.9503 39.4303L67.3594 41.9578L65.2791 46.5938L67.3594 51.2297L62.9503 53.7572L61.9097 58.7297L56.8566 58.1841L53.0916 61.5938L49.3266 58.1841L44.2734 58.7297L43.2328 53.7572L38.8238 51.2297L40.9041 46.5938L38.8238 41.9578L43.2328 39.4303L44.2734 34.4578L49.3266 35.0034L53.0916 31.5938ZM33.375 17.0625H51.1875H33.375ZM33.375 21.75H49.3125H33.375ZM33.375 26.4375H51.1875H33.375ZM23.0625 21.75C23.0625 24.855 20.5434 27.375 17.4375 27.375C14.3325 27.375 11.8125 24.855 11.8125 21.75C11.8125 18.6441 14.3325 16.125 17.4375 16.125C20.5434 16.125 23.0625 18.6441 23.0625 21.75ZM9 35.8125C9 31.1503 12.7753 27.375 17.4375 27.375C22.0997 27.375 25.875 31.1503 25.875 35.8125H9Z" stroke="white" stroke-width="2" stroke-miterlimit="10"/>
<path d="M28.6875 48.9375H27.75H18.375V50.8125H27.75H28.6875H34.9022L35.7441 48.9375H28.6875Z" fill="white"/>
<path d="M58.7163 0.1875H4.34131C2.27225 0.1875 0.591309 1.86844 0.591309 3.9375V50.8125H16.4997V48.9375H2.46631V3.9375C2.46631 2.90438 3.30818 2.0625 4.34131 2.0625H58.7163C59.7494 2.0625 60.5913 2.90438 60.5913 3.9375V30.8287L62.4663 30.6272V3.9375C62.4663 1.86844 60.7854 0.1875 58.7163 0.1875Z" fill="white"/>
</svg>
