<svg width="17" height="16" viewBox="0 0 17 16" xmlns="http://www.w3.org/2000/svg">
<path d="M3.55421 10.5306L1.46997 11.8008C1.36326 11.8596 1.33658 11.9674 1.38327 12.049L2.28032 13.5837C2.78054 14.4392 3.86768 14.9747 4.76473 14.5829C10.0704 12.271 12.6982 9.73062 14.8925 4.66613C15.276 3.78123 14.7457 2.72328 13.872 2.23348L12.3047 1.35512C12.2513 1.32573 12.1179 1.29307 12.0646 1.42042L10.744 3.50042C10.7106 3.55919 10.734 3.66368 10.814 3.71266L11.2742 4.00001C11.9012 4.39185 12.1546 5.16246 11.8778 5.82858C11.2675 7.30123 9.46343 9.15919 9.38673 9.23756C9.28669 9.33225 7.43922 11.0498 5.94858 11.6343C5.26828 11.902 4.48794 11.6506 4.08777 11.04L3.79431 10.5861C3.75763 10.5339 3.65092 10.4718 3.55421 10.5306ZM4.18448 16C2.94728 16 1.74342 15.3469 1.09981 14.2465L0.202755 12.7118C-0.217427 11.9902 0.0360159 11.0694 0.773002 10.6547L2.85724 9.3845C3.59089 8.97307 4.49795 9.18858 4.94147 9.87103L5.23493 10.3249C5.28162 10.3935 5.36833 10.4261 5.43836 10.3967C6.68223 9.91021 8.40297 8.31021 8.41965 8.29715C8.41965 8.29715 10.1004 6.56327 10.6106 5.32899C10.6406 5.25715 10.6073 5.17225 10.5372 5.12654L10.077 4.83919C9.3834 4.40491 9.15997 3.52001 9.57015 2.81797L10.8907 0.734707C11.0841 0.408177 11.8978 -0.359169 12.9816 0.195932L14.549 1.0743C15.9662 1.87103 16.6599 3.54287 16.1964 5.04817C15.4327 7.53307 13.9954 9.76001 11.9245 11.6735C9.97032 13.698 7.696 15.1053 5.15823 15.8563C4.8381 15.9543 4.51129 16 4.18448 16Z"/>
<path d="M1.21301 6.80149C0.83618 6.80149 0.532715 6.50434 0.532715 6.13536C0.532715 3.03986 3.10383 0.519043 6.2652 0.519043C6.64203 0.519043 6.94549 0.816186 6.94549 1.18516C6.94549 1.55414 6.64203 1.85129 6.2652 1.85129C3.85415 1.85129 1.8933 3.77129 1.8933 6.1321C1.8933 6.50434 1.58984 6.80149 1.21301 6.80149Z"/>
<path d="M4.14428 6.80156C3.76745 6.80156 3.46399 6.50441 3.46399 6.13543C3.46399 4.6236 4.7212 3.39258 6.2652 3.39258C6.64203 3.39258 6.9455 3.68972 6.9455 4.0587C6.9455 4.42768 6.64203 4.72482 6.2652 4.72482C5.47153 4.72482 4.82458 5.35829 4.82458 6.13543C4.82458 6.50441 4.52111 6.80156 4.14428 6.80156Z"/>
</svg>
