<svg width="42" height="42" viewBox="0 0 42 42" fill="none" xmlns="http://www.w3.org/2000/svg">
<path d="M21 40.6875C21 40.6875 3.9375 32.9511 3.9375 8.86819C14.5512 6.57937 17.6704 2.625 21 2.625C24.3296 2.625 27.4488 6.57937 38.0625 8.86819C38.0625 32.1531 21 40.6875 21 40.6875Z" stroke="#E5173E" stroke-width="2" stroke-miterlimit="10" stroke-linecap="round"/>
<path d="M15.8445 27.6454C15.6765 27.6454 15.5085 27.5614 15.3405 27.4774C15.0885 27.3094 14.9205 26.8894 15.0045 26.5534L16.4325 21.0934L12.1485 17.5654C11.8125 17.3974 11.7285 16.9774 11.8125 16.6414C11.8965 16.3054 12.2325 16.0534 12.5685 16.0534L18.1965 15.7174L20.2125 10.4254C20.3805 10.2574 20.7165 10.0054 21.0525 10.0054C21.3885 10.0054 21.7245 10.2574 21.8085 10.5094L23.8245 15.8014L29.4525 16.1374C29.7885 16.1374 30.1245 16.3894 30.2085 16.7254C30.2925 17.0614 30.2085 17.3974 29.9565 17.6494L25.5885 21.1774L27.0165 26.6374C27.1005 26.9734 27.0165 27.3094 26.6805 27.5614C26.4285 27.7294 26.0085 27.8134 25.7565 27.5614L21.0525 24.4534L16.3485 27.4774C16.1805 27.5614 16.0125 27.6454 15.8445 27.6454ZM21.0525 22.6054C21.2205 22.6054 21.3885 22.6894 21.4725 22.7734L24.8325 24.9574L23.8245 21.0934C23.7405 20.7574 23.8245 20.4214 24.0765 20.2534L27.1845 17.7334L23.1525 17.4814C22.8165 17.4814 22.5645 17.2294 22.3965 16.9774L21.0525 13.1974L19.6245 16.8934C19.4565 17.2294 19.2045 17.3974 18.8685 17.4814L14.8365 17.6494L17.9445 20.1694C18.1965 20.3374 18.2805 20.7574 18.1965 21.0094L17.1885 24.8734L20.5485 22.6894C20.7165 22.6894 20.8845 22.6054 21.0525 22.6054Z" fill="#E5173E"/>
</svg>
