<svg width="75" height="63" viewBox="0 0 75 63" fill="none" xmlns="http://www.w3.org/2000/svg">
<path d="M9.95996 8.46889V5.57719C9.95996 3.44527 11.6966 1.71997 13.8399 1.71997C15.9831 1.71997 18.06 3.44527 18.06 5.57719V7.15831" stroke="white" stroke-width="2" stroke-miterlimit="10" stroke-linecap="round"/>
<path d="M31.02 37.3596H60.1799M16.44 13.0596V20.0386C16.44 21.6359 14.8054 22.9303 13.2 22.9303H12.8695C11.2641 22.9303 9.95996 21.6343 9.95996 20.0386V7.50464L16.44 13.0596ZM31.02 21.1596H60.1799H31.02ZM31.02 29.2596H60.1799H31.02Z" stroke="white" stroke-width="2" stroke-miterlimit="10" stroke-linecap="round"/>
<path d="M69.8999 52.1133H5.09986C3.30976 52.1133 1.85986 50.6634 1.85986 48.8733V11.44C1.85986 9.64985 3.30976 8.19995 5.09986 8.19995H69.8999C71.69 8.19995 73.1399 9.64985 73.1399 11.44V48.8733C73.1399 50.6634 71.69 52.1133 69.8999 52.1133Z" stroke="white" stroke-width="2" stroke-miterlimit="10"/>
<path d="M5.32617 52.1022L64.1646 61.6602C65.7846 61.9032 68.0202 60.1536 68.2794 58.566L68.8788 50.8872" stroke="white" stroke-width="2" stroke-miterlimit="10"/>
</svg>
